<?xml version="1.0" encoding="utf-8"?>
<!-- Generator: Adobe Illustrator 14.0.0, SVG Export Plug-In . SVG Version: 6.00 Build 43363)  -->
<!DOCTYPE svg PUBLIC "-//W3C//DTD SVG 1.1//EN" "http://www.w3.org/Graphics/SVG/1.1/DTD/svg11.dtd">
<svg version="1.1"
	 id="dashIcon" xmlns:dc="http://purl.org/dc/elements/1.1/" xmlns:osb="http://www.openswatchbook.org/uri/2009/osb" xmlns:rdf="http://www.w3.org/1999/02/22-rdf-syntax-ns#" xmlns:inkscape="http://www.inkscape.org/namespaces/inkscape" xmlns:sodipodi="http://sodipodi.sourceforge.net/DTD/sodipodi-0.dtd" xmlns:cc="http://creativecommons.org/ns#" xmlns:svg="http://www.w3.org/2000/svg"
	 xmlns="http://www.w3.org/2000/svg" xmlns:xlink="http://www.w3.org/1999/xlink" x="0px" y="0px" width="20px" height="20px"
	 viewBox="0 841.89 20 20" enable-background="new 0 841.89 20 20" xml:space="preserve">
<sodipodi:namedview  units="px" id="base" borderopacity="1.0" showgrid="true" inkscape:cx="9.4912181" pagecolor="#ffffff" inkscape:cy="11.048943" inkscape:zoom="27.110082" bordercolor="#666666" inkscape:pageshadow="2" inkscape:current-layer="g4136" inkscape:document-units="px" inkscape:pageopacity="0.0" inkscape:snap-grids="true">
	<inkscape:grid  type="xygrid" id="grid4155"></inkscape:grid>
</sodipodi:namedview>
<rect x="0" y="841.89" fill="#0066DC" width="20" height="20"/>
<path fill="#FFFFFF" d="M17.928,844.507l-3.355,0.696v4.97c-0.765-0.977-1.827-1.444-3.208-1.444c-1.444,0-2.739,0.531-3.802,1.571
	c-1.188,1.147-1.826,2.613-1.826,4.25c0,1.783,0.679,3.313,1.997,4.481c0.998,0.893,2.187,1.337,3.567,1.337
	c1.36,0,2.38-0.36,3.377-1.337v1.274h3.251V844.507z M12.044,857.331c-1.721,0-2.952-1.212-2.952-2.805
	c0-1.529,1.231-2.824,2.825-2.824c1.571,0,2.782,1.232,2.782,2.867C14.699,856.14,13.488,857.331,12.044,857.331"/>
</svg>
