<?xml version="1.0" encoding="utf-8"?>
<!-- Generator: Adobe Illustrator 14.0.0, SVG Export Plug-In . SVG Version: 6.00 Build 43363)  -->
<!DOCTYPE svg PUBLIC "-//W3C//DTD SVG 1.1//EN" "http://www.w3.org/Graphics/SVG/1.1/DTD/svg11.dtd">
<svg version="1.1"
	 id="dashIcon" xmlns:osb="http://www.openswatchbook.org/uri/2009/osb" xmlns:dc="http://purl.org/dc/elements/1.1/" xmlns:cc="http://creativecommons.org/ns#" xmlns:rdf="http://www.w3.org/1999/02/22-rdf-syntax-ns#" xmlns:sodipodi="http://sodipodi.sourceforge.net/DTD/sodipodi-0.dtd" xmlns:svg="http://www.w3.org/2000/svg" xmlns:inkscape="http://www.inkscape.org/namespaces/inkscape"
	 xmlns="http://www.w3.org/2000/svg" xmlns:xlink="http://www.w3.org/1999/xlink" x="0px" y="0px" width="20px" height="20px"
	 viewBox="0 0 20 20" enable-background="new 0 0 20 20" xml:space="preserve">
<sodipodi:namedview  units="px" id="base" inkscape:pageshadow="2" inkscape:pageopacity="0.0" bordercolor="#666666" showgrid="true" pagecolor="#ffffff" inkscape:cy="11.048943" inkscape:cx="9.4912181" inkscape:zoom="27.110082" borderopacity="1.0" inkscape:document-units="px" inkscape:current-layer="g4136" inkscape:snap-grids="true">
	<inkscape:grid  type="xygrid" id="grid4155"></inkscape:grid>
</sodipodi:namedview>
<g>
	<path fill="#1AB7EA" d="M3.259,6.618c0.619,0,1.197,0.977,1.736,2.929c0.484,1.79,0.968,3.583,1.45,5.372
		c0.726,1.952,1.614,2.931,2.662,2.931c1.697,0,3.763-1.603,6.211-4.812c2.367-3.072,3.587-5.49,3.673-7.255
		c0.106-2.365-0.767-3.575-2.613-3.63c-2.496-0.08-4.188,1.337-5.071,4.262c0.455-0.199,0.901-0.297,1.336-0.297
		c0.915,0,1.319,0.521,1.211,1.553c-0.054,0.628-0.457,1.542-1.211,2.743c-0.761,1.2-1.323,1.799-1.7,1.799
		c-0.485,0-0.931-0.921-1.334-2.774C9.473,8.896,9.231,7.51,8.883,5.278C8.558,3.21,7.695,2.245,6.294,2.38
		c-0.591,0.057-1.481,0.6-2.667,1.631C2.764,4.798,1.888,5.585,1,6.372l0.846,1.1C2.656,6.903,3.128,6.618,3.259,6.618z"/>
</g>
</svg>
